<?xml version="1.0" standalone="no"?>
<!DOCTYPE svg PUBLIC "-//W3C//DTD SVG 20010904//EN"
 "http://www.w3.org/TR/2001/REC-SVG-20010904/DTD/svg10.dtd">
<svg version="1.0" xmlns="http://www.w3.org/2000/svg"
 width="512.000000pt" height="512.000000pt" viewBox="0 0 512.000000 512.000000"
 preserveAspectRatio="xMidYMid meet">
<metadata>
Created by potrace 1.14, written by Peter Selinger 2001-2017
</metadata>
<g transform="translate(0.000000,512.000000) scale(0.100000,-0.100000)"
fill="#000000" stroke="none">
<path d="M520 5113 c-211 -35 -408 -197 -479 -393 -41 -113 -40 -55 -40 -2155
-1 -2235 -6 -2074 67 -2225 74 -152 240 -282 417 -327 17 -4 943 -9 2060 -10
1959 -3 2033 -2 2102 16 119 31 198 76 288 166 61 61 89 99 118 157 71 147 67
-9 64 2248 l-2 2035 -23 60 c-85 227 -229 360 -459 422 -29 8 -4068 14 -4113
6z"/>
</g>
</svg>
