<svg version="1.1" id="Layer_1" xmlns="http://www.w3.org/2000/svg" x="0" y="0" viewBox="0 0 1001 496" xml:space="preserve"><style>.st2{fill:none;stroke:#fff;stroke-width:2}.st3{fill:#fff}.st4{fill-rule:evenodd;clip-rule:evenodd;fill:#4af6cd}.st5{font-family:&apos;FiraSans-Thin&apos;}.st6{font-size:17px}</style><path d="M1008.1 163.4L443.2-356.9v-390.3L28.1-770c-3.2 7.5-23.7 29.3-20.5 41.4 3.9 14.5 23.3 9.9 28.9 19.2 6.6 11-4.7 55.7-8.1 68.5-6.5 24.4-21.2 44.2-25.5 68.6-7.2 41 7.4 37.7 34.9 63.3 46.4 43.2 9.2 88 20.9 138.7 9.5 41.3 51 62.7 66.2 104 11.8 31.8 27.9 40 52.9 63.3-.6-14.1-13.2-55.8 10.5-52.2 23.6 3.6 14.5 38.4 19 53 3.8 12.1 30.7 36.4 8.4 47.5-7.4 3.7-28.6-11-37-14.9 6 18.7 2.2 38.1 11.7 56 11.3 21.3 23.6 13.1 38.6 24.7 15.5 11.9 13.8 25.7 6.9 43.7-7.2 18.8-14.6 15.9-3.2 38.6C241 9.8 255 30.6 267 43.1c7 7.2 14.6 8.9 21.6 18.2 5.8 7.7 3.6 17.8 10.5 24.8 11.9 11.9 32 12.1 41.4 27.7 10.4 17.4-1.4 30.5 29.3 28.9 1.6 34.8 8.2 66.4 7.8 101.2 17.2 6.8 44.9-1.3 62.9-4.9 17.9 24.1 41 7.4 61.4 20.5 8.9 5.7 7.1 20 12.5 24.9 11.1 10.2 19.3 3.8 33.1 7.4 10.2 2.6 18.1 10.1 27.8 12.8 9.2 2.6 24.3-3.4 31.2 4.7 8.2 9.7-5.5 27.6 6.8 35.4 10.3 6.5 25-9 35-6.8 11.6 2.7 45 33.1 53.2 43.2 9.3 11.5 18.7 32.9 24 47.6 8.3 23 7.1 34.3 24.2 51.2 10.9 10.8.5 11.5 18.2 14.7 11.6 2.1 26.9-6.3 38.6-7.6 24.3-2.7 48.9 2 72.9-2.6 22.3-4.3 43.6-11.3 66.5-14.6 19.8-2.9 54.7-.7 72.3-10.1 19-10.2 20.8-33.1-6.8-28.9-2.2-14.7 7.6-34.9-3.3-45.1 15.2-20.8 20.7-35.5 23.1-60.9 1.1-11.2 1.5-23.5 7.1-32.9 5.4-9.3 20.6-14.8 23.6-22.8 4.6-12.4-2.7-17.9-8.3-24.8-3.6-4.5-13.7-2.3-16.6-6.2-5.4-7.2-.1-14.6-3-21.9-9.1-20.7-19.4-29-25.9-52.8.2 4 .4 8 .1 11.9" fill="none" stroke="#fff" stroke-width="2" stroke-linecap="round" stroke-linejoin="round" opacity=".298"/><path id="path-to-shore-1_3_" class="st2" d="M732.3 84.8c-2.9-.7-5.9-.1-8.3 1.5l-8.7 5.7c-4.4 2.9-7.3 7.8-7.7 13.1l-.6 7.9v.1c-.4 6.6 3.3 12.8 9.2 15.9 17.6 9.5 56.2 34.3 37.8 49-16.6 13.4-58.9 73.2-31.1 65.5 70.3-19.5 29.2 98.7 73.3 71 48.8-30.7 24 127.8-13.1 76.7-27.1-37.3-57.8 80.8-61.5 79.9"/><path id="path-to-shore-1" class="st2" d="M729.6 84.5c-6.3 17.5-2.1 33.5 11.3 40.2 1.1.5 1.8 1.2 2.4 1.9 2.7 3.5 2.7 8.5 2.7 9.5-.2 10.1-11.4 15.9-21.1 21-2.1 1.1-4.3 1.8-4.3 1.8-1 .3-1.7.5-1.8.5-2.6.7-13.5 6.4-12.8 11.6.8 6.9 14.1 41.5-32.8 55.9-3.6 1.1-7.3 2.5-10 5.2-2.8 2.8-.3 8.1 2.1 10.5 14.4 14.4 28.8 9.8 33.1 31.6.5 8.7-8.8 5.6-32.1 18.1s-10.3 44.1-5.1 68.1"/><path id="path-to-shore-2" class="st2" d="M729.1 83.9c-8.6 23.4 11.5 31.6 27.6 46.9 4.8 4.5 5.2 12 .2 16.5-10.8 9.7-51.6-4.4-49 8.4 2.7 13.2 37.2 31.8 38.8 33.1 13.7 11.1 18.1 39.4 10.6 54.9-5.4 11-40.9 7.3-52 3.6-73.1-24-40.2-21.2-122.4-28.6-6.3-.6-12.9-.9-18.9 1-6.2 1.9-6 9.7-3.9 13.9 6.9 14 37.9 37.6 29.6 56-2.6 5.6-8.6 9.2-11.3 14.7-2.1 4.4-1.9 9.5-2.8 14.3"/><path id="path-to-shore-1_1_" class="st2" d="M729.1 84.6c-18.4 16.8-4.4 33.3 2.8 54.3.6 1.7.7 3.1.5 4.3-1.1 5.9-6.9 9.8-7.9 10.4-12 7.4-31.3-1.4-48-9-3.7-1.7-7-3.7-7-3.7-1.5-.9-2.5-1.6-2.7-1.7-3.7-2.5-22.5-11.1-27.9-6.4-7.1 6.2 3.4 39.9 25.7 64.3 13.5 14.7 28.3 22.8 26 32.5-1.5 6.3-9.5 9-10.3 9.7-9.8 7.3-39.6-12.4-47.8-20.8-53.8-55.1-25.9-37.3-95.3-81.9-5.3-3.4-11-6.7-17.2-7.9-6.4-1.2-9.8 5.8-9.9 10.5-.6 28.1 8.5 56.7.4 63.3-7.8 6.3-28.8-20.1-57-24.2-32.2-4.6-62.9 21.4-84.8 45.8"/><path id="current-location-text" class="st3" d="M598.4 75.8c.7 0 1.2.1 1.7.3.5.2.9.4 1.4.8l-.8 1c-.7-.5-1.4-.8-2.1-.8-.9 0-1.7.4-2.2 1.1-.6.7-.8 1.8-.8 3.4 0 1.5.3 2.6.8 3.4.6.7 1.3 1.1 2.2 1.1.5 0 .9-.1 1.2-.2.4-.2.7-.4 1.1-.7l.8 1c-.3.4-.8.6-1.3.9-.5.2-1.1.4-1.8.4-.9 0-1.7-.2-2.4-.7-.7-.4-1.2-1.1-1.6-2-.4-.9-.6-1.9-.6-3.1 0-1.2.2-2.2.6-3.1.4-.9 1-1.5 1.6-2 .6-.6 1.3-.8 2.2-.8zm11 11.2h-1.3l-.1-1.3c-.3.5-.7.9-1.1 1.2-.4.2-.9.4-1.5.4-.7 0-1.3-.2-1.7-.7-.4-.4-.6-1.1-.6-1.9v-6h1.5v5.9c0 .6.1 1 .3 1.2.2.2.5.4 1 .4.8 0 1.5-.5 2.1-1.5v-6h1.5V87zm6.7-8.6c.3 0 .6 0 .8.1l-.3 1.4c-.3-.1-.5-.1-.7-.1-.5 0-.9.2-1.3.6-.3.4-.6 1-.8 1.8V87h-1.5v-8.4h1.3l.1 1.7c.2-.6.5-1.1.9-1.4.5-.4 1-.5 1.5-.5zm6.2 0c.3 0 .6 0 .8.1l-.3 1.4c-.3-.1-.5-.1-.7-.1-.5 0-.9.2-1.3.6-.3.4-.6 1-.8 1.8V87h-1.5v-8.4h1.3l.1 1.7c.2-.6.5-1.1.9-1.4.5-.4 1-.5 1.5-.5zm8.4 4.1v.8h-5.4c.1.9.3 1.6.7 2 .4.4.9.7 1.6.7.4 0 .8-.1 1.1-.2.3-.1.7-.3 1.1-.6l.6.9c-.9.7-1.9 1.1-2.9 1.1-1.2 0-2.1-.4-2.8-1.2-.7-.8-1-1.8-1-3.2 0-.9.1-1.6.4-2.3.3-.7.7-1.2 1.2-1.6.5-.4 1.2-.6 1.9-.6 1.1 0 2 .4 2.6 1.1.6.8.9 1.8.9 3.1zm-1.5-.4c0-.8-.2-1.5-.5-1.9-.3-.4-.8-.7-1.5-.7-1.2 0-1.9.9-2 2.7l4-.1zm7.8-3.7c.8 0 1.4.2 1.8.7.4.5.7 1.1.7 1.9v6H638v-5.8c0-.6-.1-1-.3-1.3-.2-.2-.6-.4-1-.4s-.8.1-1.2.4c-.3.3-.7.6-1 1.1v6H633v-8.4h1.3l.1 1.2c.3-.4.7-.8 1.1-1.1.5-.2 1-.3 1.5-.3zm9.7 8.2c-.6.4-1.2.6-1.9.6s-1.3-.2-1.7-.6c-.4-.4-.6-1-.6-1.8v-5.1H641v-1.1h1.5v-1.9l1.5-.2v2.1h2l-.2 1.1H644v5c0 .4.1.8.2 1 .2.2.4.3.8.3.3 0 .7-.1 1.1-.3l.6.9zM654 76v9.7h4.5l-.2 1.3h-5.9V76h1.6zm9.1 2.4c1.2 0 2.1.4 2.8 1.2.7.8 1 1.9 1 3.2 0 .9-.1 1.6-.4 2.3-.3.7-.7 1.2-1.3 1.6-.6.4-1.2.5-2 .5-1.2 0-2.1-.4-2.8-1.2-.7-.8-1-1.9-1-3.2 0-.9.1-1.6.4-2.3.3-.7.7-1.2 1.3-1.6.6-.3 1.3-.5 2-.5zm0 1.2c-1.5 0-2.2 1.1-2.2 3.2s.7 3.2 2.2 3.2 2.2-1.1 2.2-3.2c0-2.2-.7-3.2-2.2-3.2zm9.3-1.2c.5 0 1 .1 1.4.2.4.1.8.4 1.2.7l-.7.9c-.3-.2-.6-.4-.9-.5-.3-.1-.6-.2-.9-.2-.7 0-1.2.3-1.6.8-.4.5-.6 1.3-.6 2.4 0 1.1.2 1.9.6 2.4.4.5.9.8 1.6.8.3 0 .6 0 .9-.1.3-.1.6-.3.9-.5l.7 1c-.8.6-1.6.9-2.6.9-1.1 0-2-.4-2.7-1.2-.7-.8-1-1.8-1-3.2 0-.9.1-1.7.4-2.4.3-.7.7-1.2 1.3-1.6.6-.2 1.2-.4 2-.4zm10.1 6.6c0 .3.1.6.2.8.1.2.3.3.5.4l-.3 1c-.4-.1-.8-.2-1.1-.4-.3-.2-.5-.5-.6-.9-.6.8-1.4 1.3-2.5 1.3-.8 0-1.5-.2-2-.7s-.7-1.1-.7-1.8c0-.9.3-1.6 1-2.1s1.6-.7 2.8-.7h1.3v-.6c0-.6-.1-1-.4-1.3-.3-.3-.7-.4-1.3-.4-.6 0-1.4.1-2.3.4l-.4-1.1c1-.4 2-.6 2.9-.6 1 0 1.7.2 2.2.7.5.5.7 1.2.7 2.1V85zm-3.5 1.1c.8 0 1.5-.4 2-1.3v-1.9h-1.1c-1.6 0-2.3.6-2.3 1.7 0 .5.1.9.4 1.1.2.3.5.4 1 .4zm10.8.5c-.6.4-1.2.6-1.9.6s-1.3-.2-1.7-.6c-.4-.4-.6-1-.6-1.8v-5.1h-1.5v-1.1h1.5v-1.9l1.5-.2v2.1h2l-.2 1.1h-1.8v5c0 .4.1.8.2 1 .2.2.4.3.8.3.3 0 .7-.1 1.1-.3l.6.9zm3-8V87h-1.5v-8.4h1.5zm-.8-4.1c.3 0 .6.1.8.3s.3.4.3.7-.1.5-.3.7c-.2.2-.4.3-.8.3-.3 0-.5-.1-.7-.3-.2-.2-.3-.4-.3-.7s.1-.5.3-.7c.2-.2.4-.3.7-.3zm7 3.9c1.2 0 2.1.4 2.8 1.2.7.8 1 1.9 1 3.2 0 .9-.1 1.6-.4 2.3-.3.7-.7 1.2-1.3 1.6-.6.4-1.2.5-2 .5-1.2 0-2.1-.4-2.8-1.2-.7-.8-1-1.9-1-3.2 0-.9.2-1.6.4-2.3.3-.7.7-1.2 1.3-1.6.5-.3 1.2-.5 2-.5zm0 1.2c-1.5 0-2.2 1.1-2.2 3.2s.7 3.2 2.2 3.2c1.5 0 2.2-1.1 2.2-3.2-.1-2.2-.8-3.2-2.2-3.2zm10.1-1.2c.8 0 1.4.2 1.8.7.4.5.7 1.1.7 1.9v6h-1.5v-5.8c0-.6-.1-1-.3-1.3-.2-.2-.6-.4-1-.4s-.8.1-1.2.4c-.3.3-.7.6-1 1.1v6h-1.5v-8.4h1.3l.1 1.2c.3-.4.7-.8 1.1-1.1.5-.2 1-.3 1.5-.3z"/><path id="current-location" class="st4" d="M729.5 91c3.6 0 6.5-2.9 6.5-6.5s-2.9-6.5-6.5-6.5-6.5 2.9-6.5 6.5 2.9 6.5 6.5 6.5z"/><path id="shore-4" class="st4" d="M725 471c1.7 0 3-1.3 3-3s-1.3-3-3-3-3 1.3-3 3 1.3 3 3 3z"/><path id="shore-3" class="st4" d="M661 363c1.7 0 3-1.3 3-3s-1.3-3-3-3-3 1.3-3 3 1.3 3 3 3z"/><path id="shore-2_1_" class="st4" d="M574 322.5c1.7 0 3-1.3 3-3s-1.3-3-3-3-3 1.3-3 3 1.3 3 3 3z"/><path id="shore-1" class="st4" d="M365 228c1.7 0 3-1.3 3-3s-1.3-3-3-3-3 1.3-3 3 1.3 3 3 3z"/><path id="shore-4-active" class="st4" d="M725 475c3.6 0 6.5-2.9 6.5-6.5s-2.9-6.5-6.5-6.5-6.5 2.9-6.5 6.5 2.9 6.5 6.5 6.5z"/><path id="shore-3-active" class="st4" d="M661 367c3.6 0 6.5-2.9 6.5-6.5s-2.9-6.5-6.5-6.5-6.5 2.9-6.5 6.5 2.9 6.5 6.5 6.5z"/><path id="shore-2-active" class="st4" d="M573.5 326c3.6 0 6.5-2.9 6.5-6.5s-2.9-6.5-6.5-6.5-6.5 2.9-6.5 6.5 2.9 6.5 6.5 6.5z"/><path id="shore-1-active" class="st4" d="M365 232c3.6 0 6.5-2.9 6.5-6.5s-2.9-6.5-6.5-6.5-6.5 2.9-6.5 6.5 2.9 6.5 6.5 6.5z"/><text id="shore-4-name" transform="translate(535.722 472)" class="st3 st5 st6">East Shore | Malibu, CA</text><text id="shore-3-name" transform="translate(456.78 363.892)" class="st3 st5 st6">South Shore | Malibu, CA</text><text id="shore-2-name" transform="translate(378.95 323.416)" class="st3 st5 st6">West Shore | Malibu, CA</text><text id="shore-1-name" transform="translate(164.168 229.26)" class="st3 st5 st6">North Shore | Malibu, CA</text></svg>