<?xml version="1.0" encoding="utf-8"?>
<!-- Generator: Adobe Illustrator 24.0.2, SVG Export Plug-In . SVG Version: 6.00 Build 0)  -->
<svg version="1.1" id="Layer_1" xmlns="http://www.w3.org/2000/svg" xmlns:xlink="http://www.w3.org/1999/xlink" x="0px" y="0px"
	 viewBox="0 0 1001 496" style="enable-background:new 0 0 1001 496;" xml:space="preserve">
<style type="text/css">
	.st0{opacity:0.2983;}
	.st1{fill:none;stroke:#FFFFFF;stroke-width:2;stroke-linecap:round;stroke-linejoin:round;}
	.st2{fill:none;stroke:#FFFFFF;stroke-width:2;}
	.st3{fill:#FFFFFF;}
	.st4{fill-rule:evenodd;clip-rule:evenodd;fill:#4AF6CD;}
	.st5{font-family:'FiraSans-Thin';}
	.st6{font-size:17px;}
</style>
<g class="st0">
	<path class="st1" d="M1008.1,163.4L443.2-356.9v-390.3L28.1-770c-3.2,7.5-23.7,29.3-20.5,41.4c3.9,14.5,23.3,9.9,28.9,19.2
		c6.6,11-4.7,55.7-8.1,68.5c-6.5,24.4-21.2,44.2-25.5,68.6c-7.2,41,7.4,37.7,34.9,63.3c46.4,43.2,9.2,88,20.9,138.7
		c9.5,41.3,51,62.7,66.2,104c11.8,31.8,27.9,40,52.9,63.3c-0.6-14.1-13.2-55.8,10.5-52.2c23.6,3.6,14.5,38.4,19,53
		c3.8,12.1,30.7,36.4,8.4,47.5c-7.4,3.7-28.6-11-37-14.9c6,18.7,2.2,38.1,11.7,56c11.3,21.3,23.6,13.1,38.6,24.7
		c15.5,11.9,13.8,25.7,6.9,43.7c-7.2,18.8-14.6,15.9-3.2,38.6c8.3,16.4,22.3,37.2,34.3,49.7c7,7.2,14.6,8.9,21.6,18.2
		c5.8,7.7,3.6,17.8,10.5,24.8c11.9,11.9,32,12.1,41.4,27.7c10.4,17.4-1.4,30.5,29.3,28.9c1.6,34.8,8.2,66.4,7.8,101.2
		c17.2,6.8,44.9-1.3,62.9-4.9c17.9,24.1,41,7.4,61.4,20.5c8.9,5.7,7.1,20,12.5,24.9c11.1,10.2,19.3,3.8,33.1,7.4
		c10.2,2.6,18.1,10.1,27.8,12.8c9.2,2.6,24.3-3.4,31.2,4.7c8.2,9.7-5.5,27.6,6.8,35.4c10.3,6.5,25-9,35-6.8
		c11.6,2.7,45,33.1,53.2,43.2c9.3,11.5,18.7,32.9,24,47.6c8.3,23,7.1,34.3,24.2,51.2c10.9,10.8,0.5,11.5,18.2,14.7
		c11.6,2.1,26.9-6.3,38.6-7.6c24.3-2.7,48.9,2,72.9-2.6c22.3-4.3,43.6-11.3,66.5-14.6c19.8-2.9,54.7-0.7,72.3-10.1
		c19-10.2,20.8-33.1-6.8-28.9c-2.2-14.7,7.6-34.9-3.3-45.1c15.2-20.8,20.7-35.5,23.1-60.9c1.1-11.2,1.5-23.5,7.1-32.9
		c5.4-9.3,20.6-14.8,23.6-22.8c4.6-12.4-2.7-17.9-8.3-24.8c-3.6-4.5-13.7-2.3-16.6-6.2c-5.4-7.2-0.1-14.6-3-21.9
		C1024.9,195.5,1014.6,187.2,1008.1,163.4c0.2,4,0.4,8,0.1,11.9"/>
</g>
<path id="path-to-shore-1_3_" class="st2" d="M732.3,84.8L732.3,84.8L732.3,84.8c-2.9-0.7-5.9-0.1-8.3,1.5l-8.7,5.7
	c-4.4,2.9-7.3,7.8-7.7,13.1l-0.6,7.9c0,0,0,0.1,0,0.1c-0.4,6.6,3.3,12.8,9.2,15.9c17.6,9.5,56.2,34.3,37.8,49
	c-16.6,13.4-58.9,73.2-31.1,65.5c70.3-19.5,29.2,98.7,73.3,71c48.8-30.7,24,127.8-13.1,76.7c-27.1-37.3-57.8,80.8-61.5,79.9"/>
<path id="path-to-shore-1" class="st2" d="M729.6,84.5c-6.3,17.5-2.1,33.5,11.3,40.2c1.1,0.5,1.8,1.2,2.4,1.9
	c2.7,3.5,2.7,8.5,2.7,9.5c-0.2,10.1-11.4,15.9-21.1,21c-2.1,1.1-4.3,1.8-4.3,1.8c-1,0.3-1.7,0.5-1.8,0.5
	c-2.6,0.7-13.5,6.4-12.8,11.6c0.8,6.9,14.1,41.5-32.8,55.9c-3.6,1.1-7.3,2.5-10,5.2c-2.8,2.8-0.3,8.1,2.1,10.5
	c14.4,14.4,28.8,9.8,33.1,31.6c0.5,8.7-8.8,5.6-32.1,18.1s-10.3,44.1-5.1,68.1"/>
<path id="path-to-shore-2" class="st2" d="M729.1,83.9c-8.6,23.4,11.5,31.6,27.6,46.9c4.8,4.5,5.2,12,0.2,16.5
	c-10.8,9.7-51.6-4.4-49,8.4c2.7,13.2,37.2,31.8,38.8,33.1c13.7,11.1,18.1,39.4,10.6,54.9c-5.4,11-40.9,7.3-52,3.6
	c-73.1-24-40.2-21.2-122.4-28.6c-6.3-0.6-12.9-0.9-18.9,1c-6.2,1.9-6,9.7-3.9,13.9c6.9,14,37.9,37.6,29.6,56
	c-2.6,5.6-8.6,9.2-11.3,14.7c-2.1,4.4-1.9,9.5-2.8,14.3"/>
<path id="path-to-shore-1_1_" class="st2" d="M729.1,84.6c-18.4,16.8-4.4,33.3,2.8,54.3c0.6,1.7,0.7,3.1,0.5,4.3
	c-1.1,5.9-6.9,9.8-7.9,10.4c-12,7.4-31.3-1.4-48-9c-3.7-1.7-7-3.7-7-3.7c-1.5-0.9-2.5-1.6-2.7-1.7c-3.7-2.5-22.5-11.1-27.9-6.4
	c-7.1,6.2,3.4,39.9,25.7,64.3c13.5,14.7,28.3,22.8,26,32.5c-1.5,6.3-9.5,9-10.3,9.7c-9.8,7.3-39.6-12.4-47.8-20.8
	c-53.8-55.1-25.9-37.3-95.3-81.9c-5.3-3.4-11-6.7-17.2-7.9c-6.4-1.2-9.8,5.8-9.9,10.5c-0.6,28.1,8.5,56.7,0.4,63.3
	c-7.8,6.3-28.8-20.1-57-24.2c-32.2-4.6-62.9,21.4-84.8,45.8"/>
<path id="current-location-text" class="st3" d="M598.4,75.8c0.7,0,1.2,0.1,1.7,0.3c0.5,0.2,0.9,0.4,1.4,0.8l-0.8,1
	c-0.7-0.5-1.4-0.8-2.1-0.8c-0.9,0-1.7,0.4-2.2,1.1c-0.6,0.7-0.8,1.8-0.8,3.4c0,1.5,0.3,2.6,0.8,3.4c0.6,0.7,1.3,1.1,2.2,1.1
	c0.5,0,0.9-0.1,1.2-0.2c0.4-0.2,0.7-0.4,1.1-0.7l0.8,1c-0.3,0.4-0.8,0.6-1.3,0.9c-0.5,0.2-1.1,0.4-1.8,0.4c-0.9,0-1.7-0.2-2.4-0.7
	c-0.7-0.4-1.2-1.1-1.6-2c-0.4-0.9-0.6-1.9-0.6-3.1c0-1.2,0.2-2.2,0.6-3.1c0.4-0.9,1-1.5,1.6-2C596.8,76,597.5,75.8,598.4,75.8z
	 M609.4,87h-1.3l-0.1-1.3c-0.3,0.5-0.7,0.9-1.1,1.2c-0.4,0.2-0.9,0.4-1.5,0.4c-0.7,0-1.3-0.2-1.7-0.7c-0.4-0.4-0.6-1.1-0.6-1.9v-6
	h1.5v5.9c0,0.6,0.1,1,0.3,1.2c0.2,0.2,0.5,0.4,1,0.4c0.8,0,1.5-0.5,2.1-1.5v-6h1.5V87z M616.1,78.4c0.3,0,0.6,0,0.8,0.1l-0.3,1.4
	c-0.3-0.1-0.5-0.1-0.7-0.1c-0.5,0-0.9,0.2-1.3,0.6c-0.3,0.4-0.6,1-0.8,1.8V87h-1.5v-8.4h1.3l0.1,1.7c0.2-0.6,0.5-1.1,0.9-1.4
	C615.1,78.5,615.6,78.4,616.1,78.4z M622.3,78.4c0.3,0,0.6,0,0.8,0.1l-0.3,1.4c-0.3-0.1-0.5-0.1-0.7-0.1c-0.5,0-0.9,0.2-1.3,0.6
	c-0.3,0.4-0.6,1-0.8,1.8V87h-1.5v-8.4h1.3l0.1,1.7c0.2-0.6,0.5-1.1,0.9-1.4C621.3,78.5,621.8,78.4,622.3,78.4z M630.7,82.5
	c0,0.2,0,0.5,0,0.8h-5.4c0.1,0.9,0.3,1.6,0.7,2c0.4,0.4,0.9,0.7,1.6,0.7c0.4,0,0.8-0.1,1.1-0.2c0.3-0.1,0.7-0.3,1.1-0.6l0.6,0.9
	c-0.9,0.7-1.9,1.1-2.9,1.1c-1.2,0-2.1-0.4-2.8-1.2c-0.7-0.8-1-1.8-1-3.2c0-0.9,0.1-1.6,0.4-2.3c0.3-0.7,0.7-1.2,1.2-1.6
	c0.5-0.4,1.2-0.6,1.9-0.6c1.1,0,2,0.4,2.6,1.1C630.4,80.2,630.7,81.2,630.7,82.5z M629.2,82.1c0-0.8-0.2-1.5-0.5-1.9
	c-0.3-0.4-0.8-0.7-1.5-0.7c-1.2,0-1.9,0.9-2,2.7L629.2,82.1L629.2,82.1z M637,78.4c0.8,0,1.4,0.2,1.8,0.7c0.4,0.5,0.7,1.1,0.7,1.9v6
	H638v-5.8c0-0.6-0.1-1-0.3-1.3c-0.2-0.2-0.6-0.4-1-0.4c-0.4,0-0.8,0.1-1.2,0.4c-0.3,0.3-0.7,0.6-1,1.1v6H633v-8.4h1.3l0.1,1.2
	c0.3-0.4,0.7-0.8,1.1-1.1C636,78.5,636.5,78.4,637,78.4z M646.7,86.6c-0.6,0.4-1.2,0.6-1.9,0.6c-0.7,0-1.3-0.2-1.7-0.6
	c-0.4-0.4-0.6-1-0.6-1.8v-5.1H641v-1.1h1.5v-1.9l1.5-0.2v2.1h2l-0.2,1.1H644v5c0,0.4,0.1,0.8,0.2,1c0.2,0.2,0.4,0.3,0.8,0.3
	c0.3,0,0.7-0.1,1.1-0.3L646.7,86.6z M654,76v9.7h4.5l-0.2,1.3h-5.9V76H654z M663.1,78.4c1.2,0,2.1,0.4,2.8,1.2c0.7,0.8,1,1.9,1,3.2
	c0,0.9-0.1,1.6-0.4,2.3c-0.3,0.7-0.7,1.2-1.3,1.6c-0.6,0.4-1.2,0.5-2,0.5c-1.2,0-2.1-0.4-2.8-1.2c-0.7-0.8-1-1.9-1-3.2
	c0-0.9,0.1-1.6,0.4-2.3c0.3-0.7,0.7-1.2,1.3-1.6C661.7,78.6,662.4,78.4,663.1,78.4z M663.1,79.6c-1.5,0-2.2,1.1-2.2,3.2
	c0,2.1,0.7,3.2,2.2,3.2s2.2-1.1,2.2-3.2C665.3,80.6,664.6,79.6,663.1,79.6z M672.4,78.4c0.5,0,1,0.1,1.4,0.2
	c0.4,0.1,0.8,0.4,1.2,0.7l-0.7,0.9c-0.3-0.2-0.6-0.4-0.9-0.5c-0.3-0.1-0.6-0.2-0.9-0.2c-0.7,0-1.2,0.3-1.6,0.8
	c-0.4,0.5-0.6,1.3-0.6,2.4c0,1.1,0.2,1.9,0.6,2.4c0.4,0.5,0.9,0.8,1.6,0.8c0.3,0,0.6,0,0.9-0.1c0.3-0.1,0.6-0.3,0.9-0.5l0.7,1
	c-0.8,0.6-1.6,0.9-2.6,0.9c-1.1,0-2-0.4-2.7-1.2c-0.7-0.8-1-1.8-1-3.2c0-0.9,0.1-1.7,0.4-2.4c0.3-0.7,0.7-1.2,1.3-1.6
	C671,78.6,671.6,78.4,672.4,78.4z M682.5,85c0,0.3,0.1,0.6,0.2,0.8c0.1,0.2,0.3,0.3,0.5,0.4l-0.3,1c-0.4-0.1-0.8-0.2-1.1-0.4
	c-0.3-0.2-0.5-0.5-0.6-0.9c-0.6,0.8-1.4,1.3-2.5,1.3c-0.8,0-1.5-0.2-2-0.7s-0.7-1.1-0.7-1.8c0-0.9,0.3-1.6,1-2.1
	c0.7-0.5,1.6-0.7,2.8-0.7h1.3v-0.6c0-0.6-0.1-1-0.4-1.3c-0.3-0.3-0.7-0.4-1.3-0.4c-0.6,0-1.4,0.1-2.3,0.4l-0.4-1.1
	c1-0.4,2-0.6,2.9-0.6c1,0,1.7,0.2,2.2,0.7c0.5,0.5,0.7,1.2,0.7,2.1V85z M679,86.1c0.8,0,1.5-0.4,2-1.3v-1.9h-1.1
	c-1.6,0-2.3,0.6-2.3,1.7c0,0.5,0.1,0.9,0.4,1.1C678.2,86,678.5,86.1,679,86.1z M689.8,86.6c-0.6,0.4-1.2,0.6-1.9,0.6
	c-0.7,0-1.3-0.2-1.7-0.6c-0.4-0.4-0.6-1-0.6-1.8v-5.1h-1.5v-1.1h1.5v-1.9l1.5-0.2v2.1h2l-0.2,1.1h-1.8v5c0,0.4,0.1,0.8,0.2,1
	c0.2,0.2,0.4,0.3,0.8,0.3c0.3,0,0.7-0.1,1.1-0.3L689.8,86.6z M692.8,78.6V87h-1.5v-8.4H692.8z M692,74.5c0.3,0,0.6,0.1,0.8,0.3
	s0.3,0.4,0.3,0.7s-0.1,0.5-0.3,0.7c-0.2,0.2-0.4,0.3-0.8,0.3c-0.3,0-0.5-0.1-0.7-0.3c-0.2-0.2-0.3-0.4-0.3-0.7s0.1-0.5,0.3-0.7
	C691.5,74.6,691.7,74.5,692,74.5z M699,78.4c1.2,0,2.1,0.4,2.8,1.2c0.7,0.8,1,1.9,1,3.2c0,0.9-0.1,1.6-0.4,2.3
	c-0.3,0.7-0.7,1.2-1.3,1.6c-0.6,0.4-1.2,0.5-2,0.5c-1.2,0-2.1-0.4-2.8-1.2c-0.7-0.8-1-1.9-1-3.2c0-0.9,0.2-1.6,0.4-2.3
	c0.3-0.7,0.7-1.2,1.3-1.6C697.5,78.6,698.2,78.4,699,78.4z M699,79.6c-1.5,0-2.2,1.1-2.2,3.2c0,2.1,0.7,3.2,2.2,3.2
	c1.5,0,2.2-1.1,2.2-3.2C701.1,80.6,700.4,79.6,699,79.6z M709.1,78.4c0.8,0,1.4,0.2,1.8,0.7c0.4,0.5,0.7,1.1,0.7,1.9v6h-1.5v-5.8
	c0-0.6-0.1-1-0.3-1.3c-0.2-0.2-0.6-0.4-1-0.4c-0.4,0-0.8,0.1-1.2,0.4c-0.3,0.3-0.7,0.6-1,1.1v6h-1.5v-8.4h1.3l0.1,1.2
	c0.3-0.4,0.7-0.8,1.1-1.1C708.1,78.5,708.6,78.4,709.1,78.4z"/>
<path id="current-location" class="st4" d="M729.5,91c3.6,0,6.5-2.9,6.5-6.5s-2.9-6.5-6.5-6.5s-6.5,2.9-6.5,6.5S725.9,91,729.5,91z"
	/>
<path id="shore-4" class="st4" d="M725,471c1.7,0,3-1.3,3-3s-1.3-3-3-3s-3,1.3-3,3S723.3,471,725,471z"/>
<path id="shore-3" class="st4" d="M661,363c1.7,0,3-1.3,3-3s-1.3-3-3-3s-3,1.3-3,3S659.3,363,661,363z"/>
<path id="shore-2_1_" class="st4" d="M574,322.5c1.7,0,3-1.3,3-3s-1.3-3-3-3s-3,1.3-3,3S572.3,322.5,574,322.5z"/>
<path id="shore-1" class="st4" d="M365,228c1.7,0,3-1.3,3-3s-1.3-3-3-3s-3,1.3-3,3S363.3,228,365,228z"/>
<path id="shore-4-active" class="st4" d="M725,475c3.6,0,6.5-2.9,6.5-6.5s-2.9-6.5-6.5-6.5s-6.5,2.9-6.5,6.5S721.4,475,725,475z"/>
<path id="shore-3-active" class="st4" d="M661,367c3.6,0,6.5-2.9,6.5-6.5s-2.9-6.5-6.5-6.5s-6.5,2.9-6.5,6.5S657.4,367,661,367z"/>
<path id="shore-2-active" class="st4" d="M573.5,326c3.6,0,6.5-2.9,6.5-6.5s-2.9-6.5-6.5-6.5s-6.5,2.9-6.5,6.5S569.9,326,573.5,326z
	"/>
<path id="shore-1-active" class="st4" d="M365,232c3.6,0,6.5-2.9,6.5-6.5s-2.9-6.5-6.5-6.5s-6.5,2.9-6.5,6.5S361.4,232,365,232z"/>
<text id="shore-4-name" transform="matrix(1 0 0 1 535.7216 472.0004)" class="st3 st5 st6">East Shore | Malibu, CA</text>
<text id="shore-3-name" transform="matrix(1 0 0 1 456.7798 363.8918)" class="st3 st5 st6">South Shore | Malibu, CA</text>
<text id="shore-2-name" transform="matrix(1 0 0 1 378.9509 323.4157)" class="st3 st5 st6">West Shore | Malibu, CA</text>
<text id="shore-1-name" transform="matrix(1 0 0 1 164.1679 229.2606)" class="st3 st5 st6">North Shore | Malibu, CA</text>
</svg>
